<svg xmlns="http://www.w3.org/2000/svg" xmlns:xlink="http://www.w3.org/1999/xlink" viewBox="0 0 411.02 192.84"><defs><style>.cls-1{fill:#fff;}.cls-2{fill:#13100d;}.cls-3{fill:url(#Dégradé_sans_nom_17);}.cls-4{fill:#1d1d1b;}.cls-5{fill:url(#Dégradé_sans_nom_17-2);}</style><linearGradient id="Dégradé_sans_nom_17" x1="27.38" y1="124.44" x2="163.19" y2="124.44" gradientUnits="userSpaceOnUse"><stop offset="0" stop-color="#fff"/><stop offset="1" stop-color="#05baee"/></linearGradient><linearGradient id="Dégradé_sans_nom_17-2" x1="242.2" y1="117.57" x2="382.68" y2="117.57" xlink:href="#Dégradé_sans_nom_17"/></defs><g id="Calque_2" data-name="Calque 2"><g id="Calque_1-2" data-name="Calque 1"><rect class="cls-1" x="17.93" y="35.34" width="157.04" height="157.04"/><path class="cls-2" d="M174.5,35.8V191.91H18.39V35.8H174.5m.93-.93h-158v158h158v-158Z"/><polygon class="cls-3" points="27.8 172.49 132.38 173.07 159.68 155.36 162.83 148.61 163.19 123.7 105.66 93.68 90.03 75.81 27.38 148.87 27.8 172.49"/><path class="cls-4" d="M45.94,159a6.82,6.82,0,0,1,1.39,2.27,8.63,8.63,0,0,1,.44,2.88,8.18,8.18,0,0,1-2.89,6.44,10.46,10.46,0,0,1-7.17,2.53,13.15,13.15,0,0,1-3.94-.61A15.2,15.2,0,0,1,30.36,171l-.89,1.51H27.8l-.29-10.1h1.68a22.85,22.85,0,0,0,1.22,3.38,12,12,0,0,0,1.84,2.82,8.54,8.54,0,0,0,2.52,1.95,8.23,8.23,0,0,0,5.86.35,4.31,4.31,0,0,0,1.74-1.06,4.44,4.44,0,0,0,1-1.61,6.62,6.62,0,0,0,.32-2.13,5.89,5.89,0,0,0-1-3.3,6.11,6.11,0,0,0-3-2.32c-.9-.36-1.93-.76-3.1-1.19s-2.16-.85-3-1.23a9.91,9.91,0,0,1-3.88-2.94,7.65,7.65,0,0,1-1.38-4.75,7.25,7.25,0,0,1,.69-3.14A8.34,8.34,0,0,1,31,144.63a8.92,8.92,0,0,1,2.85-1.7,10.38,10.38,0,0,1,7.07,0,16.76,16.76,0,0,1,2.94,1.45L44.7,143h1.66l.16,9.78H44.84c-.3-1.12-.65-2.19-1-3.22a11.36,11.36,0,0,0-1.48-2.78,6.89,6.89,0,0,0-2.18-1.92,6.42,6.42,0,0,0-3.16-.72,4.81,4.81,0,0,0-3.37,1.27,4,4,0,0,0-1.39,3.09,5.37,5.37,0,0,0,.89,3.17,6.54,6.54,0,0,0,2.6,2.07c1,.48,2,.9,3,1.26s1.92.73,2.84,1.13a20.86,20.86,0,0,1,2.4,1.23A8.8,8.8,0,0,1,45.94,159Z"/><polygon class="cls-4" points="87.03 130.59 92.58 130.59 92.58 136.9 95.73 136.9 95.73 143.2 98.73 143.2 98.73 148.91 102.34 148.91 102.34 155.06 104.89 155.06 104.89 158.06 107.74 158.06 107.74 160.92 111.19 160.92 111.19 164.07 117.5 164.07 117.5 167.52 138.96 167.52 138.96 164.37 144.67 164.37 144.67 161.52 147.67 161.52 147.67 155.51 150.82 155.51 150.82 140.05 147.97 140.05 147.97 134.05 144.22 134.05 144.22 130.59 141.66 130.59 141.66 127.89 138.81 127.89 138.81 124.74 129.66 124.74 129.66 121.74 123.8 121.74 123.8 118.74 114.19 118.74 114.19 115.88 107.89 115.88 107.89 112.43 102.49 112.43 102.49 109.43 98.88 109.43 98.88 106.28 95.73 106.28 95.73 103.58 93.33 103.58 93.33 97.12 90.03 97.12 90.03 75.81 93.18 75.81 93.18 70.25 96.58 70.25 96.58 66.95 98.73 66.95 98.73 63.8 102.04 63.8 102.04 60.95 105.04 60.95 105.04 58.09 114.05 58.09 114.05 54.64 135.51 54.64 135.51 57.34 144.37 57.34 144.37 60.8 147.37 60.8 147.37 63.65 150.82 63.65 150.82 60.95 153.52 60.95 153.52 57.64 159.98 57.64 159.98 94.12 154.27 94.12 154.27 87.96 150.97 87.96 150.97 79.11 147.97 79.11 147.97 72.8 144.37 72.8 144.37 69.95 141.36 69.95 141.36 66.8 139.11 66.8 139.11 64.1 132.66 64.1 132.66 61.24 114.34 61.24 114.34 63.65 111.04 63.65 111.04 66.8 108.04 66.8 108.04 69.95 105.34 69.95 105.34 88.11 107.74 88.11 107.74 91.87 110.89 91.87 110.89 93.67 114.05 93.67 114.05 96.67 120.5 96.67 120.5 99.82 126.65 99.82 126.65 103.13 135.06 103.13 135.06 106.43 141.81 106.43 141.81 108.98 147.82 108.98 147.82 112.28 153.37 112.28 153.37 115.28 156.53 115.28 156.53 118.74 159.98 118.74 159.98 121.29 163.13 121.29 163.13 128.04 165.38 128.04 165.38 148.61 162.83 148.61 162.83 155.36 159.68 155.36 159.68 161.07 156.68 161.07 156.68 163.92 150.82 163.92 150.82 167.52 147.37 167.52 147.37 170.22 138.21 170.22 138.21 173.07 114.5 173.07 114.5 170.37 105.19 170.37 105.19 167.07 99.33 167.07 99.33 164.22 95.58 164.22 95.58 167.22 92.58 167.22 92.58 170.22 87.03 170.22 87.03 130.59"/><rect class="cls-1" x="235.24" y="35.34" width="157.04" height="157.04"/><path class="cls-2" d="M391.81,35.8V191.91H235.71V35.8h156.1m.93-.93h-158v158h158v-158Z"/><polygon class="cls-5" points="242.49 172.49 347.07 173.07 364.79 168.64 382.68 151.88 378.27 118.66 322.78 91.25 322.01 62.07 242.2 147.82 242.49 172.49"/><path class="cls-4" d="M260.63,159a6.82,6.82,0,0,1,1.39,2.27,8.63,8.63,0,0,1,.44,2.88,8.18,8.18,0,0,1-2.89,6.44,10.46,10.46,0,0,1-7.17,2.53,13.15,13.15,0,0,1-3.94-.61,15.2,15.2,0,0,1-3.41-1.48l-.89,1.51h-1.67l-.29-10.1h1.69a21.78,21.78,0,0,0,1.21,3.38,12,12,0,0,0,1.84,2.82,8.45,8.45,0,0,0,2.53,1.95,7.41,7.41,0,0,0,3.35.73,7.51,7.51,0,0,0,2.5-.38,4.31,4.31,0,0,0,1.74-1.06,4.44,4.44,0,0,0,1-1.61,6.62,6.62,0,0,0,.32-2.13,5.89,5.89,0,0,0-1-3.3,6.11,6.11,0,0,0-3-2.32c-.9-.36-1.93-.76-3.1-1.19s-2.16-.85-3-1.23a9.91,9.91,0,0,1-3.88-2.94,7.65,7.65,0,0,1-1.38-4.75,7.25,7.25,0,0,1,.69-3.14,8.34,8.34,0,0,1,1.95-2.59,8.92,8.92,0,0,1,2.85-1.7,10.38,10.38,0,0,1,7.07,0,16.76,16.76,0,0,1,2.94,1.45l.86-1.41h1.66l.17,9.78h-1.69c-.3-1.12-.65-2.19-1-3.22a11.36,11.36,0,0,0-1.48-2.78,6.89,6.89,0,0,0-2.18-1.92,6.42,6.42,0,0,0-3.16-.72,4.81,4.81,0,0,0-3.37,1.27,4,4,0,0,0-1.39,3.09,5.37,5.37,0,0,0,.89,3.17,6.54,6.54,0,0,0,2.6,2.07c1,.48,2,.9,3,1.26s1.92.73,2.84,1.13a20.86,20.86,0,0,1,2.4,1.23A8.58,8.58,0,0,1,260.63,159Z"/><path class="cls-4" d="M301.31,145.1a13.53,13.53,0,0,1,2.74,4.5,16.81,16.81,0,0,1,.88,5.7,16.24,16.24,0,0,1-5.71,12.76,20.8,20.8,0,0,1-14.2,5,26.16,26.16,0,0,1-7.81-1.21,30.18,30.18,0,0,1-6.75-2.94l-1.77,3H265.4l-.58-20h3.33a43.93,43.93,0,0,0,2.41,6.68,23.37,23.37,0,0,0,3.64,5.58,16.49,16.49,0,0,0,5,3.87,14.59,14.59,0,0,0,6.64,1.44,14.83,14.83,0,0,0,5-.75,8.64,8.64,0,0,0,3.44-2.1,8.43,8.43,0,0,0,1.95-3.19,12.69,12.69,0,0,0,.64-4.22,11.7,11.7,0,0,0-2-6.53,12.14,12.14,0,0,0-5.88-4.6q-2.67-1.06-6.13-2.35t-6-2.44a19.35,19.35,0,0,1-7.68-5.82,15.14,15.14,0,0,1-2.73-9.4,14.31,14.31,0,0,1,1.36-6.21,16.14,16.14,0,0,1,3.86-5.14,17.45,17.45,0,0,1,5.64-3.35,19.2,19.2,0,0,1,6.79-1.21,20,20,0,0,1,7.22,1.23,34.29,34.29,0,0,1,5.82,2.88l1.69-2.8h3.29l.33,19.38h-3.34q-.9-3.33-2-6.38a23,23,0,0,0-2.94-5.51,13.58,13.58,0,0,0-4.32-3.81,12.82,12.82,0,0,0-6.26-1.41,9.54,9.54,0,0,0-6.66,2.5,8,8,0,0,0-2.76,6.13,10.57,10.57,0,0,0,1.77,6.28,12.93,12.93,0,0,0,5.14,4.09,63.4,63.4,0,0,0,5.91,2.49q2.89,1.05,5.61,2.24a43.28,43.28,0,0,1,4.75,2.43A17.63,17.63,0,0,1,301.31,145.1Z"/><path class="cls-4" d="M378.28,118.66a26.61,26.61,0,0,1,5.32,8.76,32.76,32.76,0,0,1,1.72,11.08,31.54,31.54,0,0,1-11.13,24.81q-11.12,9.76-27.6,9.76a50.87,50.87,0,0,1-15.21-2.36A58.44,58.44,0,0,1,318.26,165l-3.44,5.84h-6.41l-1.12-38.89h6.49a85.24,85.24,0,0,0,4.68,13,45.23,45.23,0,0,0,7.08,10.84,31.85,31.85,0,0,0,9.72,7.52,28.36,28.36,0,0,0,12.93,2.8,29.24,29.24,0,0,0,9.64-1.44,16.15,16.15,0,0,0,10.48-10.3,24.82,24.82,0,0,0,1.24-8.21,22.83,22.83,0,0,0-3.84-12.7,23.63,23.63,0,0,0-11.44-8.94q-5.2-2.07-11.93-4.58t-11.6-4.74a37.57,37.57,0,0,1-14.92-11.32q-5.32-7-5.32-18.28a28,28,0,0,1,2.64-12.08,31.38,31.38,0,0,1,7.52-10,34.09,34.09,0,0,1,11-6.52,37.57,37.57,0,0,1,13.21-2.36,38.71,38.71,0,0,1,14,2.4,67,67,0,0,1,11.32,5.6l3.28-5.44h6.41l.64,37.69H374q-1.75-6.48-4-12.4a43.44,43.44,0,0,0-5.72-10.72,26.13,26.13,0,0,0-8.4-7.41,24.7,24.7,0,0,0-12.16-2.76,18.6,18.6,0,0,0-13,4.88,15.54,15.54,0,0,0-5.36,11.93q0,7.36,3.44,12.2a25.15,25.15,0,0,0,10,8q5.85,2.81,11.49,4.84t10.92,4.37a80.26,80.26,0,0,1,9.24,4.72A34.76,34.76,0,0,1,378.28,118.66Z"/><path d="M2.41,1V19.42H0V1Z"/><path d="M6.76,9.76c0-1.39-.06-2.48-.11-3.58h2.1l.11,2.14h.08a4.58,4.58,0,0,1,4.19-2.44,3.9,3.9,0,0,1,3.72,2.65h0a5.24,5.24,0,0,1,1.51-1.72,4.44,4.44,0,0,1,2.9-.93c1.77,0,4.37,1.15,4.37,5.74v7.8H23.33V11.93c0-2.58-1-4.08-2.87-4.08A3.14,3.14,0,0,0,17.59,10a4.24,4.24,0,0,0-.19,1.2v8.21H15v-8c0-2.11-.93-3.61-2.76-3.61a3.3,3.3,0,0,0-3,2.41,3.19,3.19,0,0,0-.19,1.17v8H6.76Z"/><path d="M38.9,16.25a21.78,21.78,0,0,0,.19,3.17H36.93l-.22-1.67h-.08a4.89,4.89,0,0,1-4.05,2,3.77,3.77,0,0,1-4-3.8c0-3.2,2.85-4.95,8-4.92v-.28c0-1.09-.3-3.09-3-3.06a6.38,6.38,0,0,0-3.47,1L29.46,7a8.64,8.64,0,0,1,4.38-1.15c4.07,0,5.06,2.76,5.06,5.42Zm-2.35-3.59c-2.63-.05-5.61.41-5.61,3a2.11,2.11,0,0,0,2.24,2.3,3.35,3.35,0,0,0,3.26-2.21,2.56,2.56,0,0,0,.11-.77Z"/><path d="M54.08,17.48c0,3.06-.63,4.89-1.89,6.07a7.3,7.3,0,0,1-4.84,1.59A8.57,8.57,0,0,1,43,24l.6-1.86a7.17,7.17,0,0,0,3.89,1.07c2.46,0,4.26-1.29,4.26-4.65V17.15h-.05a4.69,4.69,0,0,1-4.21,2.21c-3.29,0-5.64-2.79-5.64-6.48,0-4.48,2.93-7,6-7a4.39,4.39,0,0,1,4.13,2.3H52l.08-2h2.13c-.08.93-.11,2-.11,3.61Zm-2.41-6.1a3.38,3.38,0,0,0-.13-1.07,3.44,3.44,0,0,0-3.37-2.57c-2.29,0-3.93,1.94-3.93,5,0,2.57,1.34,4.76,3.91,4.76A3.45,3.45,0,0,0,51.48,15a3.85,3.85,0,0,0,.19-1.28Z"/><path d="M59.42,13.24c0,3.23,2.1,4.57,4.51,4.57a8.69,8.69,0,0,0,3.67-.69L68,18.84a10.61,10.61,0,0,1-4.43.85c-4,0-6.51-2.71-6.51-6.67s2.38-7.14,6.24-7.14c4.32,0,5.44,3.8,5.44,6.24a6.37,6.37,0,0,1-.08,1.12Zm7-1.73c0-1.53-.63-3.91-3.31-3.91-2.46,0-3.5,2.25-3.69,3.91Z"/><path d="M77.56,9.76c0-1.39-.06-2.48-.11-3.58h2.1l.11,2.14h.08a4.58,4.58,0,0,1,4.19-2.44,3.9,3.9,0,0,1,3.72,2.65h0a5.24,5.24,0,0,1,1.51-1.72,4.44,4.44,0,0,1,2.9-.93c1.77,0,4.37,1.15,4.37,5.74v7.8H94.13V11.93c0-2.58-1-4.08-2.87-4.08A3.14,3.14,0,0,0,88.39,10a4.24,4.24,0,0,0-.19,1.2v8.21H85.84v-8c0-2.11-.93-3.61-2.76-3.61a3.3,3.3,0,0,0-3,2.41,3.19,3.19,0,0,0-.19,1.17v8H77.56Z"/><path d="M109.7,16.25a21.78,21.78,0,0,0,.19,3.17h-2.16l-.22-1.67h-.08a4.89,4.89,0,0,1-4.05,2,3.77,3.77,0,0,1-4-3.8c0-3.2,2.85-4.95,8-4.92v-.28c0-1.09-.3-3.09-3-3.06a6.35,6.35,0,0,0-3.47,1L100.26,7a8.64,8.64,0,0,1,4.38-1.15c4.07,0,5.06,2.76,5.06,5.42Zm-2.35-3.59c-2.63-.05-5.61.41-5.61,3a2.11,2.11,0,0,0,2.24,2.3,3.35,3.35,0,0,0,3.26-2.21,2.56,2.56,0,0,0,.11-.77Z"/><path d="M116.35,3V6.18h3.44V8h-3.44v7.12c0,1.64.46,2.57,1.8,2.57a4.48,4.48,0,0,0,1.4-.17l.11,1.83a6.47,6.47,0,0,1-2.14.33,3.4,3.4,0,0,1-2.59-1,5.14,5.14,0,0,1-.93-3.47V8h-2.06V6.18H114V3.75Z"/><path d="M122.5,10.31c0-1.56,0-2.9-.11-4.13h2.11l.11,2.6h.08a4,4,0,0,1,3.69-2.9,4.49,4.49,0,0,1,.66.06V8.21a6.28,6.28,0,0,0-.82-.06A3.38,3.38,0,0,0,125,11.21a8.23,8.23,0,0,0-.08,1.13v7.08H122.5Z"/><path d="M132.71,3.94a1.43,1.43,0,0,1-1.45-1.48,1.49,1.49,0,1,1,3,0,1.45,1.45,0,0,1-1.51,1.48Zm-1.15,15.48V6.18H134V19.42Z"/><path d="M147.4,18.93a9.38,9.38,0,0,1-3.81.76c-4,0-6.59-2.71-6.59-6.75a6.75,6.75,0,0,1,7.11-7.06,7.66,7.66,0,0,1,3.34.71l-.55,1.83a5.88,5.88,0,0,0-2.79-.62c-3,0-4.67,2.27-4.67,5,0,3.06,2,4.95,4.59,4.95a7,7,0,0,0,3-.63Z"/><path d="M151.36,3.94a1.43,1.43,0,0,1-1.45-1.48,1.5,1.5,0,1,1,3,0,1.45,1.45,0,0,1-1.51,1.48Zm-1.14,15.48V6.18h2.4V19.42Z"/><path d="M158,13.24c.06,3.23,2.11,4.57,4.52,4.57a8.61,8.61,0,0,0,3.66-.69l.44,1.72a10.69,10.69,0,0,1-4.43.85c-4,0-6.51-2.71-6.51-6.67S158,5.88,161.9,5.88c4.32,0,5.44,3.8,5.44,6.24a6.37,6.37,0,0,1-.08,1.12Zm7-1.73c0-1.53-.63-3.91-3.31-3.91-2.46,0-3.5,2.25-3.69,3.91Z"/><path d="M170.32,0h2.41V19.42h-2.41Z"/><path d="M176.78,0h2.41V19.42h-2.41Z"/><path d="M184.6,13.24c.06,3.23,2.11,4.57,4.52,4.57a8.61,8.61,0,0,0,3.66-.69l.44,1.72a10.69,10.69,0,0,1-4.43.85c-4,0-6.51-2.71-6.51-6.67s2.38-7.14,6.23-7.14c4.32,0,5.45,3.8,5.45,6.24a5.4,5.4,0,0,1-.09,1.12Zm7-1.73c0-1.53-.63-3.91-3.31-3.91-2.46,0-3.5,2.25-3.69,3.91Z"/><path d="M220,1V19.42h-2.41V1Z"/><path d="M224.32,9.76c0-1.39-.06-2.48-.11-3.58h2.1l.11,2.13h.09a4.56,4.56,0,0,1,4.18-2.43,3.9,3.9,0,0,1,3.72,2.65h.05A5.24,5.24,0,0,1,236,6.81a4.44,4.44,0,0,1,2.9-.93c1.77,0,4.37,1.15,4.37,5.74v7.8h-2.35v-7.5c0-2.57-1-4.07-2.87-4.07A3.14,3.14,0,0,0,235.15,10a4.24,4.24,0,0,0-.19,1.2v8.21H232.6v-8c0-2.11-.93-3.61-2.76-3.61a3.3,3.3,0,0,0-3,2.41,3.19,3.19,0,0,0-.19,1.17v8h-2.35Z"/><path d="M256.46,16.25a21.78,21.78,0,0,0,.19,3.17h-2.16l-.22-1.67h-.08a4.89,4.89,0,0,1-4.05,2,3.77,3.77,0,0,1-4-3.8c0-3.2,2.85-4.95,8-4.93v-.27c0-1.09-.3-3.09-3-3.06a6.38,6.38,0,0,0-3.47,1L247,7a8.64,8.64,0,0,1,4.38-1.15c4.07,0,5.06,2.76,5.06,5.42Zm-2.35-3.59c-2.63-.05-5.61.41-5.61,3a2.11,2.11,0,0,0,2.24,2.3A3.35,3.35,0,0,0,254,15.73a2.56,2.56,0,0,0,.11-.77Z"/><path d="M271.64,17.48c0,3.06-.63,4.89-1.88,6.07a7.33,7.33,0,0,1-4.85,1.58,8.57,8.57,0,0,1-4.4-1.09l.6-1.86A7.28,7.28,0,0,0,265,23.25c2.46,0,4.26-1.29,4.26-4.65V17.15h-.05A4.69,4.69,0,0,1,265,19.36c-3.29,0-5.64-2.79-5.64-6.48,0-4.48,2.93-7,6-7a4.39,4.39,0,0,1,4.13,2.3h.06l.08-2h2.13c-.08.93-.11,2-.11,3.61Zm-2.4-6.1a3.34,3.34,0,0,0-.14-1.07,3.44,3.44,0,0,0-3.37-2.57c-2.29,0-3.93,1.94-3.93,5,0,2.57,1.34,4.76,3.91,4.76A3.45,3.45,0,0,0,269,15a3.86,3.86,0,0,0,.2-1.28Z"/><path d="M277,13.24c0,3.22,2.1,4.56,4.51,4.56a8.72,8.72,0,0,0,3.67-.68l.43,1.72a10.61,10.61,0,0,1-4.43.85c-4,0-6.51-2.71-6.51-6.67s2.38-7.14,6.24-7.14c4.32,0,5.44,3.8,5.44,6.24a5.53,5.53,0,0,1-.08,1.12Zm7-1.73c0-1.53-.63-3.91-3.31-3.91-2.46,0-3.5,2.25-3.69,3.91Z"/><path d="M296.05,6.18l2.59,7.41A35.51,35.51,0,0,1,299.71,17h.08c.3-1.09.69-2.19,1.12-3.42l2.58-7.41H306l-5.19,13.24h-2.3l-5-13.24Z"/><path d="M309.37,13.24c.05,3.22,2.11,4.56,4.51,4.56a8.68,8.68,0,0,0,3.67-.68l.43,1.72a10.61,10.61,0,0,1-4.43.85c-4,0-6.51-2.71-6.51-6.67s2.38-7.14,6.24-7.14c4.32,0,5.44,3.8,5.44,6.24a5.53,5.53,0,0,1-.08,1.12Zm7-1.73c0-1.53-.63-3.91-3.31-3.91-2.46,0-3.5,2.25-3.69,3.91Z"/><path d="M331.14,18.93a9.33,9.33,0,0,1-3.8.76c-4,0-6.59-2.71-6.59-6.75a6.75,6.75,0,0,1,7.11-7.06,7.7,7.7,0,0,1,3.34.71l-.55,1.83a5.9,5.9,0,0,0-2.79-.63c-3,0-4.68,2.27-4.68,5,0,3.06,2,4.95,4.6,4.95a6.86,6.86,0,0,0,3-.63Z"/><path d="M337.22,3V6.18h3.44V8h-3.44v7.11c0,1.65.46,2.58,1.8,2.58a4.48,4.48,0,0,0,1.4-.17l.11,1.83a6.47,6.47,0,0,1-2.14.33,3.4,3.4,0,0,1-2.59-1,5.14,5.14,0,0,1-.93-3.47V8h-2.06V6.18h2.06V3.75Z"/><path d="M348.6,19.72c-3.56,0-6.35-2.63-6.35-6.81,0-4.43,2.93-7,6.57-7,3.8,0,6.37,2.76,6.37,6.78,0,4.93-3.42,7.06-6.57,7.06Zm.11-1.81c2.29,0,4-2.16,4-5.17,0-2.24-1.12-5-4-5s-4.05,2.62-4.05,5.14c0,2.9,1.64,5.08,4,5.08Z"/><path d="M358.23,10.31c0-1.56,0-2.9-.11-4.13h2.1l.11,2.6h.09a4,4,0,0,1,3.69-2.9,6.37,6.37,0,0,1,.65,0V8.21a6.14,6.14,0,0,0-.82-.06,3.38,3.38,0,0,0-3.22,3.06,6.86,6.86,0,0,0-.09,1.12v7.09h-2.4Z"/><path d="M368.43,3.94A1.44,1.44,0,0,1,367,2.46a1.49,1.49,0,1,1,3,0,1.44,1.44,0,0,1-1.5,1.48Zm-1.15,15.48V6.18h2.41V19.42Z"/><path d="M375.05,13.24c.06,3.22,2.11,4.56,4.52,4.56a8.66,8.66,0,0,0,3.66-.68l.44,1.72a10.69,10.69,0,0,1-4.43.85c-4.05,0-6.51-2.71-6.51-6.67s2.38-7.14,6.23-7.14c4.32,0,5.45,3.8,5.45,6.24a5.4,5.4,0,0,1-.09,1.12Zm7-1.73c0-1.53-.63-3.91-3.31-3.91-2.46,0-3.5,2.25-3.69,3.91Z"/><path d="M387.39,0h2.41V19.42h-2.41Z"/><path d="M393.85,0h2.4V19.42h-2.4Z"/><path d="M401.67,13.24c.05,3.22,2.11,4.56,4.51,4.56a8.68,8.68,0,0,0,3.67-.68l.43,1.72a10.61,10.61,0,0,1-4.43.85c-4,0-6.51-2.71-6.51-6.67s2.38-7.14,6.24-7.14c4.32,0,5.44,3.8,5.44,6.24a5.53,5.53,0,0,1-.08,1.12Zm7-1.73c0-1.53-.63-3.91-3.31-3.91-2.46,0-3.5,2.25-3.69,3.91Z"/></g></g></svg>